<svg xmlns="http://www.w3.org/2000/svg" viewBox="0 0 146.53 146.54"><defs><style>.cls-1{fill:#dd0713;}</style></defs><g id="Layer_2" data-name="Layer 2"><g id="Layer_1-2" data-name="Layer 1"><path class="cls-1" d="M112.64,110.3c-.27.73-.31.73-.12,1,.61.72,1.08.47,1,.66.37-.67.78-1.2,1.15-1.29l.6.36a7.94,7.94,0,0,1,.33-1.9,3.48,3.48,0,0,0,.19-1.66l-.41-.87c-.18-.33-.23-.4-.48-.81-.53,0-.54.57-.72,1a3.65,3.65,0,0,0-.36,1.1,1.49,1.49,0,0,1,.3,1.15l0,.82c0,.36-.51.2-.82.28Zm-8,29.17h0l.25-.13ZM40.32,7.89c1.27-.64,2.56-1.24,3.87-1.81l0,0c-1.3.56-2.58,1.2-3.84,1.84m19.93,4.67.07-.64L60,11.47c-.34-.48-.27-1.29-.41-1.82L59.49,9c0-.47.22-.88,0-1.34s-.29-1.75-.37-2.25A4.51,4.51,0,0,0,59,4.21a14.43,14.43,0,0,1-.36-1.54L58,2l-.26-.29A72.84,72.84,0,0,0,44.19,6.08l.2.25a4.91,4.91,0,0,1,.68,1.25A5,5,0,0,1,45,9a10.78,10.78,0,0,0,.13,2.66l0,1.08c.4.39.72,1.09,1.16,1.36l1-.57a2.66,2.66,0,0,1,1.24-.28c.37,0,.75-.08,1.11-.09s.4.24.79.17a9.37,9.37,0,0,0,1-.48c.42-.1.84-.25,1.26-.31.9-.12,1.26-.57,2-.77.41-.15,1.06-.42,1.4-.51a2.86,2.86,0,0,0,.61-.14,1.8,1.8,0,0,1,1-.1,2.68,2.68,0,0,1,.86.35l.53.28.37.16c.45.09.44.57.82.79M40.61,14.23l0,1.15c.08.23.41.26.81.3l.31-.63,1-.16-.48-1.36-1,.31c-.23,0-.48,0-.61.39m5.62,8.93-.07-.36.37-.21a5.35,5.35,0,0,0,2.37,0c.65-.1,1.56.07,2.14-.28.73-.38,1.92-.14,2.76-.21l.14.46A6,6,0,0,1,55,22c.67-.35.85-.26,1.71-.15.47-.07,1.27.49,1.56.35s.48-.35.85-.26l.61.4c.63-.21-.09-.88-.2-1.24l-.05-.5c0-.47-.26-.78-.11-1.25l.19-.85v-.47l-.09-.73a4.29,4.29,0,0,1,0-1.29c.09-.46.34-1.52.39-1.93l0-.1-.18.06-.41-.21c-.41-.13-.39,1.1-.71,1.17a2.55,2.55,0,0,1-1.34.14l-.34.06-.66.14c-.48,0-.9.14-1.4.19s-.86.08-1.29.18a16.37,16.37,0,0,1-2,.4c-.33,0-.86.08-1.32.08-.31,0-.73-.35-1-.32-1.63.11-.49.37-1.5.24-.37-.07-.71-.38-1.1-.27a11,11,0,0,1-1.4.2c0,.38-.19.6-.2.89s.12.73.1,1.07-.21.88-.17,1.26a6.25,6.25,0,0,1,.16,1.21l.31.93c.18.31.3.14.51.66l0,.57.07.49Zm6.16,2.39v0h0Zm89.34,22c.31.83.68,1.65,1,2.5-.25-.77-.51-1.55-.8-2.3Zm-30.56-36.9c1.34.82,2.63,1.72,3.92,2.62a.27.27,0,0,1,0-.09q-1.92-1.34-3.92-2.53M.75,63.31c.21-1.6.45-3.21.78-4.78h0C1.17,60.1.91,61.71.7,63.32H.75M71.33,31l-.39.55h0l.31.58,1.31-.17,1,.38.07-.14v-.42l-.83-.52ZM34.18,55.69h0Zm-.45.55c-.54,0-.41,0-.34.4s.69.33,1,.27.57-.27,1-.25l.14-.63c-.06-.39-.29-.1-.62-.25l-.71-.09ZM90.48,70.11l.9-.26a5.66,5.66,0,0,0-1.11-1.33l-1.11.86-.46-.26-.42.62.14.76c-.06,1.27,1.16-.24,1.24-.38Zm5,33.87,1,.38.16.81,0,.4-.12.45c-.2.39-.54.84-.78,1.23s-.34.84-.69,1.33l-.48.61a2.46,2.46,0,0,1-1.27.08,9.11,9.11,0,0,0-1.58,0c-.51,0-1,0-1.46.08l-.75.14-.6.2a11.27,11.27,0,0,0-1.15-.14,5.68,5.68,0,0,0-1.27-.24l-1-.18c0-.59-.87-.33-1.23-.19s-1,0-1.48.17l-.53.49.71-.16.94,1.24a3.41,3.41,0,0,1,.59.86l.45.61v.57c0,.34-.5.76-.47,1l.44.46a1,1,0,0,1,.41.84,3,3,0,0,0,.4,1,6.1,6.1,0,0,0,.37.92,5.14,5.14,0,0,1,.64,1.07,7.28,7.28,0,0,0,1.45,2.15c.86.84,1.47,1.86,2.3,2.79.28.3.27.53,0,1.08,0,.44.17-.54,1.21.63l.6.57.32.28.54.39.29.06a8.13,8.13,0,0,1,.59.82l.48.53.23.53a5,5,0,0,0,1.3.84c.37.28.53.31.72.74s-.27.68-.55,1.05a10,10,0,0,1-1,1.28A5.12,5.12,0,0,1,92.63,133a2,2,0,0,1-1.1-.16,1.85,1.85,0,0,1-.86-.52c-.4-.35-1.54-.31-2-.6l-.52-.86a12.2,12.2,0,0,1-.93-1.55c-.18-.42-.12-.75-.36-1.54a11.55,11.55,0,0,0-.46-1.22l-.76-.6-.32-.23a2.85,2.85,0,0,1-.74-1.49,7.43,7.43,0,0,0-.73-1.54c-.16-.66-.25-.84-.33-1.21s-.24-1-.33-1.53a4.59,4.59,0,0,1-.1-1.3c0-.43-.6-.67-.8-1.18s-1.84,1.79-2,2a37.36,37.36,0,0,1-3.32,4c-.34.34-.56.82-.86,1.17-.56.71-.62.63-.55,1,0,.16-.82,1-1.15,1.53a7.3,7.3,0,0,0-.63,1.88l-.29,1c-.18.28-.39.13-.77.6-.17.2-1.45,1.94-1.85,2.51l-.71.53-.46.4-.56.28c-.2.09-.25-.51-.43.14l-1.24.78a4.09,4.09,0,0,1-1.37.83c-.44.11-.88-.26-1.28-.33s-.68.08-.88,0L63.4,135l.47-.71a6.13,6.13,0,0,1,.47-.9l.61-1c.27-.33,1-.76,1.28-1.31s.68-1.18,1.06-1.73a29.85,29.85,0,0,1,2-2.71,20.07,20.07,0,0,0,2.62-2.9c.75-.9,1.55-1.78,2.28-2.7a4,4,0,0,0,.65-.88c.15-.32.13-.76.35-1l.62-.72a8.4,8.4,0,0,0,.6-1c.53-.89.91-1.4,1.49-2.3a21.89,21.89,0,0,0,1.68-3.22,4.36,4.36,0,0,0,.13-1.13l-.13-.63,0-.64-.38-.28c-.48,0-.42.16-.94.13a8.45,8.45,0,0,0-1.51-.09,13.36,13.36,0,0,1-1.55,0l-.77-.13-.8-.65.07.5-.76.24c-.84.06-1.53-.3-2.3.19l-.58-.24a6,6,0,0,0-1.07-1.61l-.4-.34c-.22-.1-.17.14-.37-.19l-.06-.18L68,105.35l.35-.65c.73,0,1.35.44,2,.5a12.81,12.81,0,0,0,2,.17c.33,0,.63-.05.9-.05l.4.16.46.07c.49-.12.64-.38,1-.56a6.37,6.37,0,0,1,1.24-.27,12.43,12.43,0,0,1,2.49.15h1.23a7.59,7.59,0,0,0,1.6-.11,5.42,5.42,0,0,1,1-.23,10,10,0,0,0,2.39-.11,5.81,5.81,0,0,0,1.35-.57,10.37,10.37,0,0,1,.06-1.12,7.94,7.94,0,0,0-.13-2.29c-.09-2.46,0-2.9,0-3.24,0-2.13,0-.59,0-1.55a3.54,3.54,0,0,1,.22-1.55c.06-.92,0-1.91.06-2.83a9,9,0,0,0,.1-2.35l-.08-1.14c0-.36.24-4.81.24-5.26s.67-3.65.12-4c-.39-.21-.26-1.38-.21-1.82a2.79,2.79,0,0,0-.18-1.63,27.76,27.76,0,0,1,0-4.56c.14-.79.39-1.32.07-2,0-.46-.11-1.57-.17-2a7.1,7.1,0,0,1,.08-1.28l-.07-.81,0-.3v-.5l0-.37c-.31-.17-.24-.55-.27-.82l-.06-.72a5.75,5.75,0,0,1,.37-1.51c.13-.52-.12-.69-.39-1.17l-.42-.67c-.33-.12-.39-.35-.68-.43s-.48-.55-.78-.78l-.47-.43A8,8,0,0,0,82,55.22c0-.4-.47-1-.32-1.41l.24-.14.2-.16.37-.27.28-.16L83.4,53l.48.13.75.31.45.3.59.2a6.69,6.69,0,0,0,1.2.22,11,11,0,0,0,1.15,0,6.14,6.14,0,0,1,1,.08,5.58,5.58,0,0,1,2.12,1.13l.74.73a1.39,1.39,0,0,1,.26.46c.19.47.52.62.9.91s.24.51.32.85l.09.76c0,.63-.77.82-.88,1.35s.58.81.51,1.39a5.29,5.29,0,0,1-.2,1.17,6.56,6.56,0,0,0-.15,1.58,7.17,7.17,0,0,0-.09,1.84,3.35,3.35,0,0,1,.07,1.81,5.13,5.13,0,0,0,.08,1.92,16,16,0,0,1,0,3.09c0,1.22,0,2.46,0,3.67a6.08,6.08,0,0,1-.07,1.66c-.12.38,0,.33-.2.63a3.27,3.27,0,0,0-.18,1.66c.12,1.08-.18,2.17,0,3.29a33.77,33.77,0,0,1-.08,4.38,10.07,10.07,0,0,0,.2,2.39c.36,1.48-.53,3.33.48,4.71,0,.55,0,1.11,0,1.69s-.06.68-.4,1.21-.37.55-.64,1l.62.62a1.93,1.93,0,0,1,0,1.18c-.16.38-.65.52-.95.8l-.32.59a3.47,3.47,0,0,1,1,.32,6.2,6.2,0,0,1,1.46.49c.34.25.43.46.78.52.61,0,.35-.09.94-.07M82.32,58.4c.83.57.4.74.71,1.42l.39.55a23.26,23.26,0,0,1-.08,4.36c-.06.65.58,1.54.13,2,0,0-.17,3.13-.13,4.25l-.14.41a3,3,0,0,0,.49,2.33c.57.7.2,1.83.2,2.68l-.59.34L83,77.9a26.7,26.7,0,0,0-.22,3.36,15.17,15.17,0,0,1,0,1.65v.86l0,1.27c-.44,1.3.15,2,.15,3.31a5.63,5.63,0,0,1,0,1.23,11.18,11.18,0,0,0,0,4.5c.07.65.43,1.29,0,1.87-.27.32-.54.38-.73.84a2.79,2.79,0,0,1-.38.85,3.4,3.4,0,0,1-.5.57c-.16.15-.58.83-.91,1.21s-.79,1-1.51,1.19c-.52.09-.52-.22-.93-.39-.78-.33-.31-1.56-.38-2.22a18.35,18.35,0,0,1,.1-2.47c0-.83-.41-1-.37-1.9,0-1.23,0-2.41.18-3.61.09-.75.39-1.34.54-2A11,11,0,0,0,78,84.54c-.09-1,.07-2,0-3l-.11-.78a8.15,8.15,0,0,1,.06-2.26h.63l.51-1V77.2c.26-.35.67-.5.68-.58l.06-.28c0-.17-1-.58-1.32-.6s-.89-.27-1.33,0l.32.37.18,1-.18.28c-.44.06-.71.14-1.54.29-.51.2-.81,0-1.23.37l-.59.5c-.53.09-1-.38-1.42-.49a6.7,6.7,0,0,0-1.6.17,3.62,3.62,0,0,1-.91,0c-.66,0-1.11.48-1.78.31a4.15,4.15,0,0,1-2.77-2.24c-.16-.39-.23-.3-.44-.61s-.07-1,0-1.38a4.47,4.47,0,0,0,1.52-.15c.51-.14.65-.51,1.24-.51,1,0,1.88.15,2.8.21a11.92,11.92,0,0,0,2.17-.26A7.78,7.78,0,0,0,74,73.41a8.1,8.1,0,0,1,1.91,0c.27,0,1.91.73,1.28-.21-.2-.35.69-1,.66-1.36l-.23-.34.07-.37c0-1.1-.23-2.49.13-3.54l.53-.09c-.47-.35-.12-1-.51-1.42s-.54-.28-.61-.9a9.43,9.43,0,0,0,.09-1.21,9.74,9.74,0,0,1-.2-1.07,3.06,3.06,0,0,0-.62-2.16l-.91-.57c-.42-.33-.59-1-.94-1.43-.48-.58-.52-.88-1.3-1.23a2,2,0,0,1,.4-.66l.26-.55a1.33,1.33,0,0,1,.63-.47c.34.25,1.09.15,1.52.13.73,0,.78.74,1.43,1.06s1.17.26,1.51.89l.07-.46.94.06a5.23,5.23,0,0,1,2.22.92m-5-7.06c0,.94-.08,1.83-.12,2.75a3.22,3.22,0,0,1-2.73-1.39c.38-.87,1.37-.65,1.87-1.42v0h0a9.05,9.05,0,0,1,1,0M90.1,136.6l.23-.78s.91-.21.91-.65c0,0,1.12.09,1.38.75,0,0-.28,1.35.78.75l.57-.16.2.7s-.81.56-.55,1c0,0-2.07-.23-2.45-1.23,0,0-.41-1.17-1.07-.41m3.12-102c0-.53,0-1.08,0-1.62a9.06,9.06,0,0,0,1.33-.32l.72.1c-.18.84.11.93.95,1.07s.93,1.05,1.09,1.56a7.63,7.63,0,0,1-1.54-.28c-.88-.13-1.91-.4-2.57-.51M37.26,26s-.29.21-.15.94l.09.83h-.59s-.73-1.3-1.36-1.05l.12-1,.73-.46ZM41,99.38a7.46,7.46,0,0,1,2.54,0l1.09.47a2.92,2.92,0,0,0,1.14.57c.48.14,1,.25,1.51.44s.32.29.55.61a1,1,0,0,1,0,1l-.37.5-.54.42-.9.59a32.47,32.47,0,0,1-4.52,0c-.93,0-1.94-.18-2.86-.09s-2,.26-3.09.3-1.91,0-2.86,0a10.22,10.22,0,0,0-3,.31A4.7,4.7,0,0,1,28,105a9.94,9.94,0,0,0-2.34.3,12.43,12.43,0,0,1-1.72,0c-.69,0-1.35.41-2.06.41v0l-.63.53c-1.25.06-2.46.17-3.66.28-.91.1-1-.1-1.56-.59s-.79-.26-1.58-.83a4.59,4.59,0,0,1-1.41-.54l-.46-.33-.19-.47c-.24-.43-1-.78-1.18-1.19l.25-1.12a2,2,0,0,1,1,0,4.36,4.36,0,0,0,1,.23c.92,0,2.21-.2,3.05.18.54.2.5.47,1.17.5s1.11,0,1.66,0a9.71,9.71,0,0,0,1.67-.28c1.29-.16,2.59.15,3.88,0,.5-.08,1-.13,1.54-.2,1-.13,1.91-.22,2.86-.31a1.91,1.91,0,0,0,1.06-.42l.16-.84c-.22-.56-.63-1-.88-1.56a4.16,4.16,0,0,0-.81-1.63c-1.74-1.81-1.18-.37-2-2.46-.39-1-1.22-.73-1.44-1.69.24-.43,1.41-.59,2-1.15a2.8,2.8,0,0,1,.83.32c.32.14.74.09,1,.33a4.78,4.78,0,0,1,1,1,5.58,5.58,0,0,0,1.1.77A9.48,9.48,0,0,0,33,95l.78.27a6.79,6.79,0,0,1,1.4,1.48l.39.6.12.82a2.84,2.84,0,0,1-.08,1.5c-.1.18-.69.81.06.84s1.17,0,1.86-.1c.37,0,.8,0,1.23-.12a4,4,0,0,0,2.26-.9M99.85,81.69c-.25-.56,1-1.12,1.28-1.59l.42-1.14.76-.4c.12-.11.64,1.09.61,1.85,0,.6,3,.9,3.42,1.54s-.69,1.21-1.12,1.39c-1,.35-1.19-.2-2.07-.3a9.32,9.32,0,0,0-2.3,0,6.66,6.66,0,0,1-1-1.36m6.73,29.12v.27l.06.37c-.31.08-1,.3-1,.16l-.22-.71-.44-.31c.39-.42.26-.41.54-.42l.17,0,.7,0c.38-.08.16.35.14.56m35-63.48.15.19a73.37,73.37,0,0,0-26.64-34.28c0,1,0,2,.09,3l.16.91c0,.53-.43.65-.62,1.21.62.31.75.42.74,1.12a6.2,6.2,0,0,0-.06,1.6,11.46,11.46,0,0,1,.08,1.53,6.13,6.13,0,0,1-1.09.43c-.65.12-.44-.09-.86-.35-.34,0-1.36.52-1.34.43l.48,1.23c.2-.06,1.77-.23,2.13-.25l.58-.05.09.51c.38.78,1.84.77,2.53.46.38-.17.6-.54,1-.69l.91-.07h.46l.33,0,.23.14.51.22a3.79,3.79,0,0,0,1.28.38l.6-.07c.51-.19.35-.65,1.13-.37l.84.55c.45.37,1.1.82,1.51,1.23s.2.93.35,1.61a5.79,5.79,0,0,0-1,.83,8.46,8.46,0,0,1-1.68,1.09A4.9,4.9,0,0,1,123,30a2.13,2.13,0,0,1-1.47,0,9.73,9.73,0,0,0-3.12-.25,10.87,10.87,0,0,1-1.63-.13,6.4,6.4,0,0,1-1-.52l-.29-.1c-.13-.06-.31,0-.62.16l0,.28v.75A10.92,10.92,0,0,1,114.7,32l-.5,1.24c.16.39.28.46.42.77.09.73-.27,1.12.29,1.34a8.09,8.09,0,0,0,0,1.3c0,.66,0,1.16.07,1.83a6.08,6.08,0,0,1-.26,2.24c-.15.6-.09,1-.2,1.66s-.83.92-1.17,1.55a12.41,12.41,0,0,0-.52,1.46,2.49,2.49,0,0,1,1.3-.29,8.79,8.79,0,0,1,1.34.29,9.88,9.88,0,0,1,2.22.3c.65.31,1.27.88,1.9,1.22a11.52,11.52,0,0,1,1.93,1.45c.45.38,1.46.75,1.64,1.32.1.32-.07.43-.12.69a9.34,9.34,0,0,1-.25,1.21c-.27.66-1,.39-1.66.5-.92.15-1.51.91-2.59.82-1.72-.13-3.42-.83-5.13-.93s-1.6-.32-3.06.12c-.88.21-1.63,0-2.57.27-.45.12-.32-.23-.74-.39L107,51.9a1.77,1.77,0,0,1,1-.56l.54-.12-.2-.51-.92-.47c-.39.11-.61.22-1,.36l-.29.86-.33.28-.69,0a5.89,5.89,0,0,0-1,.32,13.9,13.9,0,0,1-2.48-.16,38.31,38.31,0,0,0-4.66.26c-1.75.07-3.89.45-5.66.62a9.28,9.28,0,0,0-3.26,1c-.78-.17-1.65-.4-2.34-.53a4,4,0,0,1-1.5-.5,3.09,3.09,0,0,1-1-.89,2.22,2.22,0,0,1,0-1.64l1.23-.37,1-.85v-.84l-1.7.43c-.21-.27-.28-.22-.21-.53l.08-.56a13.14,13.14,0,0,1-.23-1.73c.06-.75.07-1.71.15-2.13s0-.87.11-1.31c.24-1,.42-1.77.66-2.8.15-.77-.69-2-.7-2.71,0-.36-.38-.46-.27-1.14.13-1,1.73-.76,2.21-.75s.94,0,1.17.36c.41.6.26.5,1,.68a3.7,3.7,0,0,1,.71.24,3.43,3.43,0,0,1,1,.63l.24.75.61.85a1.77,1.77,0,0,1,.28,1.37,7.75,7.75,0,0,0,.11,1.69,2.81,2.81,0,0,1-.24,1.5l-.54.5,0,.94a14.83,14.83,0,0,1-.14,3.5l.73.16c1.28.22,2.58,0,3.86.17.31,0,.13,0,.76-.21l.43-.21,1,0c.43,0,.86,0,1.28,0h.84l.36.23a9.78,9.78,0,0,0,1,0c1.17-.12,1.65-.48,2.81-.58a11.21,11.21,0,0,0,2.68-.44c1-.34,2,.05,3,0s0-.2,1.07-.38a4.14,4.14,0,0,0,.94-.29l-.31-.43a4.81,4.81,0,0,1-.4-1.25c-.08-.6-.22-1.2-.29-1.82a13.62,13.62,0,0,0-.22-1.38,4.61,4.61,0,0,0-.46-1.16L109.2,38a4,4,0,0,0,0-2.33,5.8,5.8,0,0,1,0-1.72c0-.5-.06-1.65,0-2.14a3.16,3.16,0,0,1,.25-1.15,1.34,1.34,0,0,0,.25-.78c0-.36-.2-.75-.18-1.14,0-2.18.12-4.45-.07-6.65a5.93,5.93,0,0,1,0-1.63l-.35.21-.33-.31c.33-.24.45-.7.65-1s.39-.45.36-1c-.07-1-.13-1.91-.17-2.88a11.61,11.61,0,0,1-.11-2.13l.7-.34-1-.56A5.16,5.16,0,0,0,108.15,10c-.52-.57-1.37-1-1.72-1.75l-.13-.29A72.38,72.38,0,0,0,85.45,1l0,.49A15.53,15.53,0,0,1,86,4.76c0,.68-.28,1.45-.32,2.26s0,1.93,0,2.91c-.92.38-.77-1-1.1-1.81-.48-1.33-.93-1.25-.66-2.73A19,19,0,0,0,84.47,3l0-.5A12.87,12.87,0,0,1,84.63.89,71.26,71.26,0,0,0,62.55.83a4.54,4.54,0,0,1,1.45.6l.42.55a2.3,2.3,0,0,0,.81.83l.91.38c.39.42.29,2,.3,2.49a21.16,21.16,0,0,1,.23,2.19,1.62,1.62,0,0,1-.36,1l-.26.55-.31.44a9.64,9.64,0,0,0-.06,1.08c-.14,1-.23,2.24-.32,3.14s.17,2.17,0,3.16c-.07.47-.17.69-.24,1.15A6.12,6.12,0,0,0,65,19.7a7.52,7.52,0,0,1,0,2.36l.19.08c0-.11.16,1.36.19,1.73.12,1.17-.9,1.9-1.67,2.6-.47.42-.42.77-1.1.7-.47-.06-.95-.17-1.42-.24-.88-.08-1.89,0-2.49-.66-1-1.12-3.05-.61-4.28-.61-.66,0-.91-.27-1.48-.19s-.43.31-.93.27l.34-.14-.52.11.18,0h0c-.51.12-1.35.2-1.3.2-.4,0-.62,0-1.06,0A2.74,2.74,0,0,0,49,26l-.73.13c-.81.06-1,.49-1.58.9a1.91,1.91,0,0,1-1.28.37l-.47-.17a3,3,0,0,0-1.11.07,2,2,0,0,1-1.52-.08c-.57-.3-1-.63-1.66-.9s-1-.19-1.14-.69l0-.54-.15-.7.24-.47.23-.43c.26-.64.09-.8.07-1.43,0-.35,0-.48,0-1.06s0-.92,0-1.61l-.09-.45a4.66,4.66,0,0,1-.06-1.19c0-.6.46-1.21.45-1.78,0-.42-.53-.61-.66-.94a4.81,4.81,0,0,1-.11-1.32c-.06-.44-.13-.82-.15-1.28,0-1-.06-.93-.08-1.89a7.89,7.89,0,0,1,.1-.85c0-.32,0-.44-.09-.73s.32.11.37-.37l0-.26a74.64,74.64,0,0,0-11.1,7.09l-1.71,2,1.66,1.42-.44,1.52c-1-.81-2.85,3.15-2.85,3.15l-1.77-.39-.69-1.44a2.55,2.55,0,0,1,.18-1.46A73.2,73.2,0,0,0,1.53,58.53c1.49,0,2.9-.22,4.41-.05a37.91,37.91,0,0,0,4.25-.1A21.17,21.17,0,0,0,13.65,58c.52-.07,6.47.48,7-.26.08-.22.64-.28,1-.39a4.56,4.56,0,0,1,1.05-.09c.75,0,1.57,0,2.34-.06s1.51-.29,2.29-.32a15.21,15.21,0,0,0,2.71-.33l.63.43a3.56,3.56,0,0,0,.95-2.07c.12-.73.41-1.46.48-2.18a11.25,11.25,0,0,0,.07-2.08,8,8,0,0,0-.11-1.22,4,4,0,0,1,0-1.17c0-.5-.06-1.47-.09-1.92,0-.14-.64-.29-1.22-.5a4.74,4.74,0,0,0-1.44-.22c-2-.11-3.58.85-5.63.54a10.29,10.29,0,0,0-1.86-.32,9.91,9.91,0,0,0-1.08.12l-1,.37c-.6,0-.69-.38-1.11-.77a1.77,1.77,0,0,0-1.43-.35l-1,1.29a6.12,6.12,0,0,1-1.86.5c-.57.1-.87-.23-1.48-.27a4.94,4.94,0,0,1-1.57-.15c-.41-.2-.67-.61-1-.82s-.77-.32-1.14-.58-1.52-1.38-1.27-2c.11-.36,1.18-.89,1.53-.89s1.06.34,1.54.37a13.22,13.22,0,0,0,3.67,0A28.56,28.56,0,0,1,19.11,42c1.05-.12,2.11-.29,3.14-.36.64-.08,1.21-.18,1.83-.31,1.12-.25,2.25-.31,3.36-.54a16.36,16.36,0,0,1,3.1-.54c.37,0,.71.08,1-.15s.25-.6.65-.75A5.61,5.61,0,0,1,34,39.15a20,20,0,0,1,1.91.6,2.45,2.45,0,0,1,1.54.84,14.48,14.48,0,0,1,1.09,1.77c.22.42.63.72.82,1.15a2.58,2.58,0,0,1-.13,1.67c-.17.32-.37.4-.46.77v.91a15.3,15.3,0,0,1-.08,2.81,27,27,0,0,1-1.29,4.74,6.17,6.17,0,0,0-.38,1.2c-.11.47-.68.54-1.05.9.14.28,2.1-.14,2.55-.14a26.4,26.4,0,0,0,2.92-.12c1.12-.17,2.12-.57,3.27-.72.58-.05,1.17-.16,1.77-.22,1.28-.07,1.85-.27,2.54-.27a5.07,5.07,0,0,1,1.51.45c-.26-.39-.49-.72-.52-.78a1.88,1.88,0,0,1-.19-.8c0-.69-.21-1.32-.21-2.12A6.85,6.85,0,0,1,50.16,50c.16-.76,0-1.55.13-2.33s.36-1.32.52-2c.14-.53.12-1,.3-1.54a6.48,6.48,0,0,0,0-3.33l-.54-2.42c0-.33.05,0-.17-.28L50,37.67c-.17-.32-.23-.41-.36-.67l-.46-.67.44-1c-.26-.24-.61-.07-1.21-.09a13,13,0,0,1-2.13.24c-.62,0-1.72.1-2.32.11-2.16.09-3.85.21-6,.34a25.6,25.6,0,0,0-4.44.67,3.79,3.79,0,0,1-1.57.26,3,3,0,0,0-1.31,0c-1.42.2-3.76.17-5,.76a2.07,2.07,0,0,1-1.36.19c-.65-.12-1.49-.33-2.12-.41a14.3,14.3,0,0,1-1.59,0c-.33-.09-.34-.24-.6-.5s-.75-.58-1.06-1-.46-.84-.79-1.16-.7-.38-.84-.87L17,32.75l0-.09c.21-.35.79-.41,1.25-.48s.74.27,1.15.39,1-.18,1.42-.06a5.79,5.79,0,0,0,1.1.12c.79.08,1.58.11,2.39.12a29,29,0,0,0,3.09-.25c.91-.08,2.69.11,3.62.06,1.3,0,1.3,0,2.54-.05s2.16-.27,3.26-.27a29.54,29.54,0,0,0,9.47-1.07,4.16,4.16,0,0,1,1.61,0l.82.08.68-.29h2.66c.56,0,.94-.24,1.38-.24s1,.47,1.52.38l.57-.45c.31-.13.61-.15.94-.31a3.43,3.43,0,0,1,1.33-.26c1.09-.06,2.19,0,3.31,0A27.91,27.91,0,0,1,64,29.9c.83.11,1.29-.34,2.11-.46s1.31-.64,2-.55,1.72.3,2.44.35a3.65,3.65,0,0,1,1.73.79c.57.32.41,1.24,1.1,1.19.37,0,.53-.42.92-.35l.23.08A17.56,17.56,0,0,1,76,28.18a10.65,10.65,0,0,1,1.82-1.3,8.89,8.89,0,0,0,1.74-2.17,9.62,9.62,0,0,1,1.69-2.37,6.79,6.79,0,0,0,.87-1.07c.43-.57.69-1.21,1.07-1.81.2-.3.55-.6.54-1.05.14-.33.24-.57.39-.87l.63-.77c1.66-2,2.1-3.48,3.1-5.89a3.47,3.47,0,0,0,.06-2.23,5,5,0,0,1,.19-1.94c.16-.34.77-.5,1-.69l1.76,1.49a6.16,6.16,0,0,0,1.86,1.37c.09.42.43.81.46,1.26s-.29.65-.37,1.1.38.83.63,1.17a4.65,4.65,0,0,1,.58,1.28,16.33,16.33,0,0,0,2,3.1,12.6,12.6,0,0,0,2.16,2.74l.6.51.12.56c.23.42.73.6,1,.94l.56.7c.31.37.22.29.47.6a19.61,19.61,0,0,0,2.33,2.1,5,5,0,0,1,1.47,1.8c.18.52.91.58,1.1.64A1.88,1.88,0,0,1,107,29.27a14.39,14.39,0,0,1-3.08,3.06,4.06,4.06,0,0,1-1.88.37c-.57,0-.61-.63-1.19-.63a3.73,3.73,0,0,1-1.63-.25,1.48,1.48,0,0,1-.76-.27l-.65-.83c-.32-.37-.62-.67-1-1s-.64-.54-.56-1.16a3.08,3.08,0,0,0,0-1.21c-.13-.41-.39-.79-.51-1.27a4.22,4.22,0,0,0-.59-1.62c-.35-.45-.72-.36-1.16-.65a4.65,4.65,0,0,1-1.23-2.4A17.79,17.79,0,0,0,91.57,18a2.51,2.51,0,0,0-1.14-1.16c-.56-.22-.73-.05-1.17.51a13.13,13.13,0,0,0-.93,1.6c-.37.65-.68,1.34-1.1,1.95-.85,1.28-1.34,3-2.53,4.11l-.69.81-.51.66A14.16,14.16,0,0,1,82,29.6a11.2,11.2,0,0,0-1.1,1.48,4.89,4.89,0,0,1-1.2,1.69l-.32.12.52.55.74.76.24.37-.22.79c-.74.34-1.36.34-2,1a1.53,1.53,0,0,1-1.11.63,5,5,0,0,1-1.09-.11c-.91-.09-1.74.11-2.64.1a6.23,6.23,0,0,1-1.69-.6,15.31,15.31,0,0,0-4.25-.7,21.48,21.48,0,0,0-4.39-.13l.23.34a2.5,2.5,0,0,0,1.35.78c0,.33-.06.71.13,1a8.55,8.55,0,0,0-1.12.12c-.51,0-.69-.3-1.1-.43s-.79,0-1.15-.07c-.62-.18-.5-.82-1-1,.53-.33,1.37-.07,1.89-.39l0-.34-.38-.08-.94-.31c-.79-.17-1.69.12-2.51,0-.65-.09-3.34-.48-2.78.08a1.76,1.76,0,0,1,.85,1.68c-.21,1-.33.44-.18,1.51a2.43,2.43,0,0,1-.36,1.6L55,39.78l-.21.42-.75.33.13.88.62.58.61-.48.27-.18.38,0v.82A4.57,4.57,0,0,0,56.23,44l.34.8a12.68,12.68,0,0,1,0,2.54,3.65,3.65,0,0,1,0,1c-.06.34-.28.55-.28.95,0,1.16.74,2.68-.13,3.73a14.16,14.16,0,0,0-1.06,1.59c-.32.41-.16.33-.51.68s-1,1-1.39,1.56a7.18,7.18,0,0,0,2.14.77c.91.13,1.15,0,1.78.76a4.92,4.92,0,0,1,1,1.21l0,.74-.54.71c-.71.6-.6,1.23-1.5,1.3a5.35,5.35,0,0,0-2,.37,10.79,10.79,0,0,0-1.87.89c-.29.21-.87.1-1.2.08a2.94,2.94,0,0,1-1.76-.65c-.69-.46-1.29-.56-2-1a9.43,9.43,0,0,0-1.76-.76c-1.24-.46-2.86-.25-4.15-.37a28.15,28.15,0,0,0-4.74-.34l-.59,0c-.35.13-.58.27-.9.4a2.4,2.4,0,0,1-1.22.18,10.26,10.26,0,0,0-1.32.12c-.42,0-.35-.44-1.2-.45L29.65,61c-.11.41,1,.68,1.08.77l0,.76a5.34,5.34,0,0,0,0,1.13c0,.32,0,.58.1,1.16a16.92,16.92,0,0,0-.06,1.84,5.81,5.81,0,0,1,.13,1.64,8,8,0,0,1-.22,2,2.21,2.21,0,0,1-.83,1.27l-.29.23.26,0c.92-.12,1.48-.15,2.34-.34.36-.07.8-.14,1.15-.19s.82-.58,1.85-.54a8.11,8.11,0,0,0,1.84.35,2.78,2.78,0,0,1,1.44.29c1.87.76,1.25,0,2.1.92,1,1.06,1.92,2.12,1.59,3.15a12.8,12.8,0,0,0-1,2.32A10.42,10.42,0,0,1,41,79.23a5.58,5.58,0,0,0-.12,2.26A4.38,4.38,0,0,1,41,83c-.1,1.24.07,1.55,0,2.26a18.47,18.47,0,0,1-.27,2.22,6.9,6.9,0,0,0-.22,2.2c0,.45.36,1.43.06,1.84l-.84.53-.91.63c-.54.43-.9,1-1.45,1.35s-1.14.49-1.68.89-.49.56-1.24.15c-.38-1.29-1-2.28-.74-3.67a2,2,0,0,1,.36-1.18c.4-.65.31-2,.47-2.85l0-.82H35c.34.09.57-.07.89.19l.59.59.23-.26-.45-.77-.3-.92c-.18-.2-.85-.19-1.33-.2-.06-1.24.45-1.65.51-3.14,0-.42,0-.6,0-1,0-1.18-.43-2.47-.35-3.63l-.62-.13a5.83,5.83,0,0,0-2.52-2.11c-.38,1-1.75.76-2.72,1a4.92,4.92,0,0,1-1.86-.08,15.54,15.54,0,0,0-1.93,0,6.26,6.26,0,0,0-1.5.14c-.49.09-.85.42-1.34.52a3.17,3.17,0,0,1-1.26-.06c-2.5-.26-4.82.57-7.27.6-1,0-2,0-3,.09a3.92,3.92,0,0,0-1.23.27L9,78H8.33l-.58,0-.82-.35a6.51,6.51,0,0,1-1.12-.56l-1-.41-.14,0-.56-.88-.31-.25,0-.77.1-.83c.36-.06.28,0,.59-.14l.78-.37c.64-.12,1.32.18,2,.08a29.91,29.91,0,0,1,3.69-.11,34.16,34.16,0,0,1,3.66.13,7,7,0,0,0,2.47,0c.42,0,.64-.46,1-.53s1.06,0,1.53-.07a17.29,17.29,0,0,0,2.2-.2,20.16,20.16,0,0,1,2.46-.07,5,5,0,0,0,.83-.06c-.2-.34,0-.58-.11-1s-.07-.61-.32-1S24,70,24,69.33a14.89,14.89,0,0,0,.64-3.59c.08-.67-.1-1.43-.05-2.1a6.07,6.07,0,0,0-.1-1.47,1.27,1.27,0,0,0-.87-.87l-.79.1a15.08,15.08,0,0,1-2.22.08c-.84,0-1.93.54-2.75.38-.15-.44-1.17-.57-1.6-.62-.62,0-.69.36-1.16.72-.28.22-.46.18-.84.32s-.89-.06-1.24,0c-.64.07-1.2.21-1.83.34a27.6,27.6,0,0,1-6.41.3l-.67-.12-.39-.37c-.35,0-.73.47-1.09.57a13.9,13.9,0,0,1-1.91.34A71.34,71.34,0,0,0,3.3,95.12l1.93-1.23L9.1,96.4s-.92.75-.49,3.09l.3,2.81-2,0a12.5,12.5,0,0,0-2-2.65,73.48,73.48,0,0,0,21.55,29.94l.57,0a7.86,7.86,0,0,0,1.19,0l.83-.36c.67-.12,2.16.1,2.52-.64l-.1-.64v-.46l0-.62c-.5-2.18-1-2.06-.91-2.57a2,2,0,0,1,.73-1.25c-.36-.08-.84-.08-1.18-.17-.62-.14-1.2,0-1.8-.15s-1-.47-1.49-.55H26c-.38.06-.28.23-.77.06l-.72-.55a2.12,2.12,0,0,1-.76-.73,8.35,8.35,0,0,0-.51-.82c-.22-.3-.33-.49-.55-.82a3.25,3.25,0,0,1-.45-.94c.06.38-.94-2.45-.57-1.94-.51-.73-.67-.91-.46-1.8a10,10,0,0,1,.93-3.09c.57-.94,1.08-2.09,2.18-2.55l1.12-.31.06-.71.58-.32c.58-.21,1-.62,1.58-.87a19.26,19.26,0,0,1,3.5-.87,9.83,9.83,0,0,1,3.13-.61c.81,0,.9.5,1.49.88a4.58,4.58,0,0,0,1.68.38c.82.22,1.61.54,2.41.82a6.84,6.84,0,0,1,1.1.6,5,5,0,0,1,1,.74,3.79,3.79,0,0,1,1.09,1c.31.64.59,1.24.85,1.93v.93a8.3,8.3,0,0,1,0,1.39,4.14,4.14,0,0,1,.12,1.41c0,.61-.32.47-.7.86s-.57,1.36-1,2a5.75,5.75,0,0,1-1.69,2.22c-.39.2-.76.36-1.17.61s-.89.51-1.33.71a10.73,10.73,0,0,0-1.56.85L36,123l-.23.16-.75.35,0,.49.67.68c.6,1.31,0,2.45.32,2.87s.12,1.68.36,1.68-.24-.47.2-.65c.66-.27,2.88-.35,3.54-.52a43,43,0,0,1,5-1.14,4.11,4.11,0,0,1,1.64-.19c.63.1,1.18.53,1.81.63a3.78,3.78,0,0,0,1.12,0l-.06-.18c-.58-1.07-1.1-1.33-1.36-2.19a4.23,4.23,0,0,1,.27-2.24c.56-.24,1.09-.53,1.62-.77.07-.71.07-1.58.07-2.28v0c.52,0,.89.09,1.43.09-.13.66-.6,1.35-.72,2a23.08,23.08,0,0,0-.11,2.76,12.55,12.55,0,0,0-.28,2.29l.08.4a1.44,1.44,0,0,1,1.2.29c.3.25.35.34.69.63s.73.8,1.16,1.2.29.19.86.13a1.22,1.22,0,0,1,.75.12c-.36-1-.93-.86-2-1.3.06-.5-.3-.92-.3-1.4s.16-.48.32-.86a7.4,7.4,0,0,0,.2-3.71,10.5,10.5,0,0,1,.23-4.25,2.67,2.67,0,0,0,.15-1.61,3.83,3.83,0,0,1-.13-1.7,16.15,16.15,0,0,0,.08-3.11c0-1.61,0-3.26,0-4.87,0-1.16.1-2.35.21-3.51a3.07,3.07,0,0,0-.19-1.64c-.35-1-.07-1,.71-1.63-.85-.53-.53-1.18-.9-2A5.27,5.27,0,0,1,53.28,96c0-.83-.28-1.59-.28-2.29,0-.38,0-.29-.15-.62a7,7,0,0,0-2.53-2.71c-.33-.12-.22-.29-.24-.55v-.23h0l-.69.71A7.61,7.61,0,0,0,48,92.06l-.74.92c-.43.33-1,.6-1.41.88-1.1.67-1.9,1.51-3.21,1.79-.44.08-.87-.33-1.26-.39s-.85.38-1.14,0l-.34-1.12c0-.1.38-.49.69-.86.12-.22.86-1,1.23-1.46a13.32,13.32,0,0,1,.89-1.54c.5-.74,1-1.2,1.3-1.59A19.15,19.15,0,0,1,46,86.67c.39-.4.88-.65,1.07-1.16A3.54,3.54,0,0,1,48,84.13c1.51-1.87,3.39-4,3.67-4.6a3.33,3.33,0,0,1,.86-.94l.58-.76c.17-.32.42-.63.61-.93a7.34,7.34,0,0,1,1.2-1.57A6,6,0,0,0,56,73.89l.29-.77.08-.86c.1-.42.18-.86.26-1.39a2.42,2.42,0,0,0,0-1.24,3.07,3.07,0,0,0-.28-.87c-.1-.27.44-.35,0-.54s-.6.31-1.11.28l-1.5-.09a14.81,14.81,0,0,1-1.48-.29c-.46,0-1.34,0-2.32,0a3.75,3.75,0,0,0-2.29.42l-.56-.26a9.07,9.07,0,0,0-1-1.56l-.4-.37-.36-.17L45.18,66l-.27-1.59.36-.64c.42-.23,1.42.44,1.86.48a11.52,11.52,0,0,0,2.18.18c.33,0,.7-.16,1-.16l.39.14.4.18c.44,0,.64-.38.93-.55s.81-.09,1.23-.16a11.33,11.33,0,0,1,2.47-.17c.4,0,.84.2,1.26.2s.38-.29.77-.38a6.11,6.11,0,0,1,1.86,0A8.17,8.17,0,0,0,62,63.49c.81-.22,1.56-.71,2.38-1,.55-.19,1-.65,1.57-.61a6.1,6.1,0,0,0,1.72-.33c.76-.15,1.1.32,1.68.51.24.15,2.09.74,1.28.49.32.13.42.47.78.48.58.07.32,0,.92,0l1,.38.14.68.08.54c0,.34,0,.21-.14.49a4.53,4.53,0,0,0-.52,1.27,3.08,3.08,0,0,1-.94,1.33l-.47.62c-.27.25-.92.14-1.26.08a16.83,16.83,0,0,0-3,0l-.77.16-.59.18c-.36-.11-.76-.06-1.17-.14a7.28,7.28,0,0,0-1.25-.25l-1-.15c0-.61-.88-.34-1.22-.22s-1,.07-1.46.21l-.23-.09.59.38c.47.3.57.9.86,1.32s.81.76.88,1.35c.05.41-.49,1.48-.45,1.74l.44.49c.33.29.3.44.47.9s.2.53.34,1a4.21,4.21,0,0,0,.37.91,6.82,6.82,0,0,1,.66,1.1,6.35,6.35,0,0,0,1.43,2.18c.84.87,1.12,1.79,1.93,2.72a1.69,1.69,0,0,1,.33,1.59c-.06.62.39-.32.88.17l.61.56.66.44.34.32a3.6,3.6,0,0,1,.91.84c.26.32.48.69.73,1s.2.18.52.31.55.38.89.63.64.31.75.86.2.39,0,.65l-.5.76c-.2.41-.93.56-1.23.87a5.43,5.43,0,0,1-2.48,1.44,3.43,3.43,0,0,1-1.1-.2,1.86,1.86,0,0,1-1-.42c-.43-.4-.74-.29-1.23-.47-1-.33-1.19-1.52-1.71-2.27-.24-.3-.61-.5-.67-.86s.35-.67.23-1.13-.43-.8-.65-1.28l-.71-.52-.32-.21a3.37,3.37,0,0,1-.78-1.62c-.08-.5-.55-1-.71-1.57a4.16,4.16,0,0,1-.33-1.21A10.43,10.43,0,0,1,60,78c0-.56-.53-.21-.59-.56l-.31-.65c-.62-.46-1.89,2.24-2.12,2.64-.42.68-1.06,1-1.43,1.73A10.23,10.23,0,0,1,54,83.39c-.32.37-.55.8-.86,1.17a2.84,2.84,0,0,0-.69.92c-.28.57-.78.82-1.13,1.37a4.39,4.39,0,0,0-.51,1.45l-.09.19a1.89,1.89,0,0,1,.95-.42,2.09,2.09,0,0,1,1.34.29,7.07,7.07,0,0,0,1.25.48c1,.27,2,1,3,.79a1.67,1.67,0,0,1,1.56.39l.58.56c.82.75,0,.66.79,1.28a8.44,8.44,0,0,1-.2,2.78c0,.44-.16.54-.18,1-.07,1.23,0,2.44,0,3.69a10.44,10.44,0,0,0,.36,3.26c.32,1.08-.21,2.25-.39,3.31-.09.53,0,1-.05,1.51a7.31,7.31,0,0,0-.12,1.8,9.08,9.08,0,0,0,.77,1.65,5.25,5.25,0,0,0,1.43.09l.82-.46c.79-.26,1.23-1,2-1,.64-.06,1.34-.12,1.94-.13s1.15.48,1.83.62.92-.26,1.63.09,1.74.51,2.41.9c.49.31.42.86.44,1.51s.57,1.37.38,1.82c-.28.79-1.37,1.9-2.34,1.68l-.81-.2c-.54-.14-1.16-.13-1.69-.26a10.93,10.93,0,0,0-1.81-.35l-.73.14c-.33.07-.75-.08-1.08,0a7.49,7.49,0,0,1-1.34,0,14.82,14.82,0,0,1-2.87-.45l-.21.63-.68-.3-1-.18.57-1.19L58,113.73c-.19.43-.32.39-.76.49s-.41.46-.1.75l-.06.69a1.24,1.24,0,0,1-1.06.06,1.87,1.87,0,0,0,.64,1.38l.29-.28a1.19,1.19,0,0,1,.68-.39l-.33-.71c.81,0,1.86-.34,2.57,0a8.3,8.3,0,0,1,.19,1.72c-.13.63-.82,1-1,1.59s-.14.68-.08.87a8.87,8.87,0,0,1,0,3.29c-.07.65.19,2.15-.33,2.63.53.24.68.15.75.75a11,11,0,0,1-.15,2.22c-.11,1.16.24,2.35.23,3.49,0,.8,0,1.56,0,2.35,0,.54-.23.92-.27,1.47a17.26,17.26,0,0,0,.13,2.38,21.15,21.15,0,0,1,.23,2.22,6.9,6.9,0,0,1-.53,1.82c-.15.35-.48.52-.63.81-.28.5-.14,1-.3,1.41-1.35-.29-2.69-.61-4-.95l0-.16a4,4,0,0,0-.17-.88l.07-1.2c-.14-.29-.29-.06-.45-.41a4.77,4.77,0,0,1-.24-1.7,21.52,21.52,0,0,0,0-2.78l.09-.57a3,3,0,0,1,.29-.84c.21-.48-.09-1.28-.06-1.84,0-.3.18-1.31-.23-1.47s-.8.85-1.2.92-.9-.26-1.24-.32-.58-.08-.9-.13a19.55,19.55,0,0,0-4.6-.63c-.69,0-1.27.26-1.93.34a5.71,5.71,0,0,1-1.49,0,9.87,9.87,0,0,1-1.74-.08c-.44-.12-.4-.56-.69-.85-.36.22,0,.49-.35.77l-1.43.32a8.2,8.2,0,0,1-3.72,0,3.29,3.29,0,0,0-1.69.1c-.53.18-1.1.1-1.66.23l-.3.07a73,73,0,0,0,71.6,8c-.06-.32,0-.75-.06-1.43a22.34,22.34,0,0,1,.05-2.46c.06-.83-.2-1-.18-2,.06-1.5,0-2.5.15-3.48a21.61,21.61,0,0,1,.33-2.15,14.17,14.17,0,0,0-.15-3.45c-.11-1,0-2,0-3.06a34.88,34.88,0,0,1,.11-3.54s1.24-.3.86-.64a21.52,21.52,0,0,0-2.88-.07l-.07.48a1.8,1.8,0,0,0-1.18.36l-.56.52c-.49.11-.9-.35-1.36-.45a5,5,0,0,0-1.52.19,4.07,4.07,0,0,1-.87.08c-.58,0-.94.43-1.52.37a2.52,2.52,0,0,1-1.31-.57l-.94-.65c-.43-.37-.4-.54-.6-1a1.6,1.6,0,0,0-.31-.61c-.26-.34.18-1,.22-1.4a3.44,3.44,0,0,0,1.08-.16c.47-.18.6-.53,1.16-.55a26.58,26.58,0,0,1,2.68.16,10.44,10.44,0,0,0,2.05-.31,3.66,3.66,0,0,0,1.06-.25,6.17,6.17,0,0,1,1.82,0c.27,0,1.88.66,1.27-.28-.19-.33.63-1,.6-1.35l-.22-.36.08-.37a13.49,13.49,0,0,1,.1-3.54l.49-.09c-.45-.37-.13-1-.5-1.44s-.55-.26-.6-.87a6.75,6.75,0,0,0,0-1.19,9.07,9.07,0,0,1-.09-1.11,2.9,2.9,0,0,0-1.11-1.91l-.74-.76-.52-.84-.4-.68-.34-.49-.51-.44a2.71,2.71,0,0,1,.18-.64l.31-.51.46-.58a5,5,0,0,0,1.45.15c.68,0,1.06.82,1.67,1.13s1,.41,1.39,1l.3-.42H104a8.26,8.26,0,0,1,2.12.65c.89.37.37.5.69,1.18l.37.53c.25.61-.18.85-.22,1.48a2.31,2.31,0,0,0-.81.1l-.15.52-1.21-.53-1,.54c-.17.51-.66,1.4-.59,1.61l.55.73,1,.92c.49.45.35-.68.46-1a3.78,3.78,0,0,1,1-1.26c.54-.49.45-.21.73.39.12.35.41.39.38.88,0,.65-.45,1.35-.53,2.16l-1.12,0a6,6,0,0,0-.85.14l-.44.84c0,.45.5,1,.22,1.35s-.37.1-.47-.18c-.26-.54,0-.48-.73-.71l-.65,1.21c.12.45.57.66.71,1.11a6.12,6.12,0,0,0,.81,1.63,1.24,1.24,0,0,0,1.33-.49l1.06-.38.61,0c-.07.87-.33,1.66.24,2.37s.24,1.8.21,2.66l-.56.37,0,1.13c0,1.13-.53,2.25-.42,3.38a17.89,17.89,0,0,1,0,2.43c0,.84,0,1.53,0,2.36s.15,1.55.17,2.34a4.61,4.61,0,0,1,0,1.23,5.39,5.39,0,0,0-.18,1.27,6.79,6.79,0,0,0,.11,2,10.16,10.16,0,0,1,.15,1.25,2.51,2.51,0,0,1-.15,1.73c-.16.38-.39.54-.57,1a2.85,2.85,0,0,1-.32.81c1.88-.94,3.7-1.95,5.47-3.05,0-.57,0-1.14,0-1.71a10.31,10.31,0,0,0,.06-2.56l-.11-1.2c0-.42.14-5.26.13-5.72,0-.63.6-4,.05-4.33s-.3-1.52-.26-2a3.21,3.21,0,0,0-.2-1.75,28,28,0,0,1-.12-4.92,4.09,4.09,0,0,0,0-2.22c0-.53-.17-1.7-.23-2.24a9,9,0,0,1,0-1.37l-.08-.88,0-.32V104l0-.41-.28-.89-.22-.53.33-.81.07-.67c.12-.47.29-.82.85-.58v-.59l-.38-.23-.62-.5c-.23-.32.36-.88,0-1s-.79.16-1.1.06-.48-.57-.79-.82l-.47-.45a10,10,0,0,0-1.8-1.51c0-.49-.46-1.09-.35-1.54l.23-.16.2-.17.38-.31.28-.18.59-.09.5.17.75.3.44.29.59.25c.4.07.81.14,1.21.18a7.45,7.45,0,0,0,1.16,0,6.43,6.43,0,0,1,1,0,3.45,3.45,0,0,1,1.79.89,6.38,6.38,0,0,1-.47-1.13v-.67l.27-.5.32-1.33-.3-.51,0-.33c-.18,0-.38-.11-.56-.46l.38-.6-.81.45a1.48,1.48,0,0,0-.24-.9l.4-1a2.62,2.62,0,0,0,1.12.82l.06-.36c.09-1.37.87-2.24,1.5-3.39a4.25,4.25,0,0,1,1.17-1.62c.58-.42,1.36-.52,1.92-1,.35-.26.51-.87.86-1.2a2.12,2.12,0,0,1,1.45-.5c1.13-.1,2.23-.11,3.38-.18a25.7,25.7,0,0,1,3.4.1,43.91,43.91,0,0,1,5.31,1.36,2,2,0,0,1,.93.81,5.22,5.22,0,0,1,.46,1c.15.31.75.71.8,1.07l.34-.25a11.08,11.08,0,0,1-.59-1.25l0-.75a5.38,5.38,0,0,0,.15-1.11,18.07,18.07,0,0,1,.1-2.21c.11-.66.45-.92.34-1.5a13.61,13.61,0,0,1-.16-1.64,25.49,25.49,0,0,1-.16-2.9,3.53,3.53,0,0,0-.42-1.52c-.2-.55,0-.82-.62-.89a5.19,5.19,0,0,0-1.36.06c-.44.1-.82.4-1.29.53a26.79,26.79,0,0,1-3.58.9c-.64,0-.68-.14-1.22-.36a2.62,2.62,0,0,0-1.62-.33,7.62,7.62,0,0,0-1.69.37,1.55,1.55,0,0,1-1.36.09,11,11,0,0,1-1.36-.53l-.33-.63c-.18-.31-.27-1.23-.71-1.23l.06-.78c.79,0,.89-.1,1.66-.16.6,0,1.21-.18,1.82-.24a2,2,0,0,0,1.3-.43,1,1,0,0,1,.79-.27,5.18,5.18,0,0,0,1.19-.17,8,8,0,0,1,3.16-.51,19.79,19.79,0,0,0,3,.11c.83,0,1.32.54,2.06.9l.56-.38c.1-.48-.22-.42-.36-.69s-.11-.47,0-.84c.12-.52.25-1.08.36-1.65a1.07,1.07,0,0,0,0-.89l-.31-.77c-.11-.55,0-1.06-.16-1.6a6.05,6.05,0,0,1-.06-1.42c-.48-.08-.72.36-1.09.55s-.13.53-.86.74c-1.23.39-3.19,1.18-4.44,1a10.52,10.52,0,0,0-1.59-.06,2.22,2.22,0,0,1-1.29-.27l-.45-.23-1,0a6.64,6.64,0,0,1-1.89-.06c-.71-.2-2.5-1.41-2.37.2a1.4,1.4,0,0,1,.54.76V63l-.17.53c0,.4.16.72,0,1.1-.28,1.1-1.15,1.84-1.28,3,0,.44-.16,1.06-.17,1.41s.21.44-.1.94c-.18.32-.38.58-.55.87a1.68,1.68,0,0,1-1,1c-.62.33-1.35.32-2,.71s-1.19.9-1.76,1.26a3.33,3.33,0,0,1-.61.27c-1,.44-2.11.6-3,1.1s-1.7,1.43-3,1.17c-.82-.18-1.55,0-2.39-.12a5.26,5.26,0,0,1-1.8-.75c-.41-.29-1-.42-1.37-.79s-.48-.82-.83-1.2c-.72-.7-1.36-1.46-2.1-2.18l-.67-1c-.42-.47-.5-.89-.88-1.37a8.15,8.15,0,0,1-.79-1L96.75,67c-.29-.65-.64-.41-.46-1.33a10.57,10.57,0,0,1,.86-2.54c.32-.67.17-1.13.8-1.75A4.44,4.44,0,0,0,98.81,60a6.61,6.61,0,0,1,.29-1.08c.15-.32.34-.31.52-.51a2.14,2.14,0,0,1,2.08-.61h.06c.55-.25-.52-.24-.33-.65l.34-.33.36-.45c.77-.06,2-.31,2.66-.37a10.77,10.77,0,0,0,2.83-.86l1-.4c.44,0,.67.35,1.06.46a3.92,3.92,0,0,0,1.46.1,6.87,6.87,0,0,1,3.21.91l1.3.72.77.51c.48.27,1.06.53,1.52.8s.89.92,1.41,1.28a2,2,0,0,1,.81,1.1c.46.17.29-2,.68-2a2.78,2.78,0,0,0,1.08-.06,3,3,0,0,1,1.75,0,5.24,5.24,0,0,0,1.82-.38l.79-.16a8.49,8.49,0,0,1,1.18-.31,8.23,8.23,0,0,1,1.5-.23c.5-.11,1-.11,1.48-.2l.83-.36a4.76,4.76,0,0,1,1.88,0,12.49,12.49,0,0,1,2.2-.13,3.75,3.75,0,0,0,1.39-.19c.53.37.73.81,1.19.46.27-.14.52-.46.84-.46.59,0,1.28,0,1.28-.06a6.72,6.72,0,0,0-.24-1.07c-.36-.81-.9-.45-2.28-.21a3.54,3.54,0,0,0-.94.62c-.43-.25-.35-.12-.37-.44l0-.58a3.54,3.54,0,0,0-.08-1.22L136,52.9l.19-.69.8-.16c-.15-.62-1.29-1.39-1.75-1.8A6.15,6.15,0,0,1,134.08,48c-.05-.28,0-.31-.35-.61a2.73,2.73,0,0,1-.89-.42,8.35,8.35,0,0,0-1.27-1.11c-.31-.59,0-.87.2-1.19.76-.72.59-.36,1.17-.52s.81-.27,1.38.06a4.16,4.16,0,0,0,1.38.53,7.23,7.23,0,0,1,1.6.61,11.71,11.71,0,0,1,1.7.84c.43.28.81.1,1.31.13.68,0,.82.27,1.27,1M32.79,108.08c.16.38.57.58.48,1l-.94.29-.54.58-.67.15a5.41,5.41,0,0,1-1.79.23c-.62-.06-.81-.25-1.28.16l-.31.44-.62.2a3.53,3.53,0,0,0-.81,1.05,4.31,4.31,0,0,0-.55,1.4,3.39,3.39,0,0,0-.16,1.16,2.81,2.81,0,0,0,.28,1l.68.79c.43.5.19,1.26.75,1.65A12.6,12.6,0,0,0,31.09,120,4.76,4.76,0,0,0,33,119.9a5.55,5.55,0,0,0,1.06-.14l.55-.22a6.53,6.53,0,0,0,1.54-1.26,10.49,10.49,0,0,0,1.26-1.16A2.86,2.86,0,0,0,38,116a2.54,2.54,0,0,1,.21-.79c.21-.37.54-.22.48-.72s.1-.37,0-.63c-.56-1.05-.32-2.37-1-3.33l-1-.45c-.08-.39-.44-.26-.79-.29a2.41,2.41,0,0,1-.82-.24l-1-.25-.23-.39-.29-.61Zm86.48-18.15.3.13c0,.36,0,.81,0,1,0,.38.09.44.21.75.19.52.23.52-.27.93.11.11.11.92.28.6s.14-.28.22-.21c.75.5,1.91,1.79,2.25,1.65s.75.42,1.19.6c.14.08,0,.39.27.73a2.13,2.13,0,0,0,1.13.69c.39.13.75.62,1.07.62a4.78,4.78,0,0,0,2.07-.55,7.28,7.28,0,0,1,1.78-1.32,13.62,13.62,0,0,0,2.53-.67l.65-.62a4.5,4.5,0,0,0,.92-2,10.83,10.83,0,0,0,.36-1.73l0-.77c0-.35,0-.71,0-1.06,0-.88-1.37-1.74-1.52-2.7-.09-.68-.23-1-1-1.09-.25,0-.64,1.11-1.33,1.07a4.7,4.7,0,0,1-.83-.13c-1-.15-2.24-.94-3.24-.87a5.68,5.68,0,0,1-.88-.2l-.38.08-.68.42a4.57,4.57,0,0,1-1.55.33c-1,0-.9.55-1.38,1.31a13.1,13.1,0,0,0-.95,1.53l-.35,1.06-.89,0a6.18,6.18,0,0,0-1.44-.12l0,.35c0,.07,0,.64.54.54ZM103.72,64.08l-.12-.28.17-.83c.15-.17-.58-.51-.92-.67l-.53.67c-.16.18-.84.61-.47.8l.69.42a4.41,4.41,0,0,0,.86.36l0,.59-1,.6-.18.25,0,.34.28.45.28.43,0,.15.34.47a2.21,2.21,0,0,0,.74.75c.43.23.78.45,1.18.7l.1,0,.2.16.66.45.39.36c.33.36.25.58.77.73a9.29,9.29,0,0,0,2.51.42l.79-.11.65-.83c.38-.21,1-.14,1.39-.28a4.56,4.56,0,0,0,1.25-.55,10.25,10.25,0,0,0,1.62-2.16,4.61,4.61,0,0,0,.28-3.29c-.25-1.14-.16-2.28-1.26-2.76l-.56-.37-.29-.43a4.81,4.81,0,0,0-1.83-.1c-1.2,0-3.18-.6-4.28-.23-.43.16-.57.48-.92.76s-.39.68-.78,1-.51.84-.85,1.42-.61.5-1.18.52m42.81,9.64a73.38,73.38,0,0,0-3.48-22.59v0c-.17.82,0,.79-.43,1.45a9.49,9.49,0,0,0-.6,3.06c0,.72-.1,1.2-.09,1.53a13.6,13.6,0,0,1,0,1.36c-.07.57,0,1.19-.08,1.74-.09,1.12-.09,1.95-.1,3.06s.22,1.65.15,2.83a5.88,5.88,0,0,1-.27,1.68,15.93,15.93,0,0,0,.08,4.9,9.05,9.05,0,0,1,.27,2c0,.67-.16,1.34-.16,2,0,1,.07,2,0,3.08a27.47,27.47,0,0,0,0,2.87l-.18.53a2,2,0,0,0,.06,1c.09.38,0,.74.12,1.14.19.69-.51,1-.75,1.6l-.6,1c-.38.37-.74-.06-1.07.16s-.26,1-.21,1.44a7.09,7.09,0,0,1-.07,3.27l-.19.66.17.34.13.37-.14.65a13,13,0,0,1-.89,1.79,7.2,7.2,0,0,1-.92.91,2.55,2.55,0,0,1-1.41.66,6.1,6.1,0,0,0-1.33.9,5.51,5.51,0,0,0-1.19.83,4.18,4.18,0,0,1-1.33.8,10.35,10.35,0,0,1-1.27.37,25.55,25.55,0,0,1-3.21.88c-.87.08-1.48-.4-2.42-.18-.62.1-.91-.25-1.54-.41a8.55,8.55,0,0,1-1.48-.63c-.56-.25-1.16-.68-1.77-1a11.23,11.23,0,0,1-2.86-2.61,3.64,3.64,0,0,0-1-.87v0c.13.51.52.66.93,1s.24.58.31.92l.12.83c.07.69-.76.9-.86,1.49s.61.86.55,1.47a5.5,5.5,0,0,1-.4,1.3A7,7,0,0,0,117,105a8.57,8.57,0,0,0-.08,2,3.89,3.89,0,0,1,.15,1.93,5.06,5.06,0,0,0,.09,2.09,20.9,20.9,0,0,1,.11,3.36c0,1.33.07,2.65.07,4a6,6,0,0,1,0,1.8c-.11.42-.31.35-.46.7-.21.54.08,1.26.13,1.81a32.87,32.87,0,0,1,0,4c0,1.45,0,2.88.06,4.32,0,.3,0,.66.07,1a74,74,0,0,0,17.68-18.87,3.76,3.76,0,0,1-.54-.82l1.3-2.18-2.8,1.62a4.89,4.89,0,0,0-.8-3.21l1.3-3.33s2.59,3.17,4.54,2.89a73.15,73.15,0,0,0,8.77-34.33"/></g></g></svg>